#!OML:ASF E:\Steps\Project 1\Capture day 1\Session 2\Subject.ASF
:FULLY-SPECIFIED
:DEGREES
203
root 9.27372 16.3082 19.9678 -152.387 -3.2154 -179.542
lowerback -30.5349 -1.54681 -4.70029
upperback -3.38637 -1.55184 0.118591
thorax 12.277 -1.3835 1.98014
lowerneck -5.3802 -2.95079 18.318
upperneck 0.153098 -5.96416 -25.2352
head -0.350619 -3.68677 -11.2245
rclavicle 0 -2.94201e-014
rhumerus -32.6263 -17.3862 -82.4111
rradius 27.5122
rwrist 3.02618
rhand -8.46635 -50.5601
rfingers 7.12502
rthumb 17.4601 -79.796
lclavicle 0 -2.94201e-014
lhumerus -28.3291 6.39897 82.5014
lradius 18.4038
lwrist -11.0259
lhand -21.5336 -12.2733
lfingers 7.12502
lthumb 4.85915 17.651
rfemur -23.7751 7.2048 18.8003
rtibia 7.00303
rfoot -19.3768 -8.2277
rtoes -25.3252
lfemur -24.9454 -9.85988 -15.7525
ltibia 8.57638
lfoot -8.42033 4.4194
ltoes -39.8126
204
root 9.2747 16.3086 19.9841 -152.215 -3.11996 -179.47
lowerback -30.44 -1.50823 -4.63279
upperback -3.45797 -1.54486 0.148229
thorax 12.1548 -1.37919 1.98108
lowerneck -5.39675 -2.95403 18.3888
upperneck 0.16565 -5.98642 -25.3423
head -0.354598 -3.70479 -11.2783
rclavicle 1.05356e-014 7.15625e-015
rhumerus -32.7316 -17.0254 -82.4909
rradius 27.7084
rwrist 2.65404
rhand -8.43414 -50.0774
rfingers 7.12502
rthumb 17.4911 -79.3105
lclavicle 1.05356e-014 7.15625e-015
lhumerus -28.4131 6.30735 82.4896
lradius 18.4732
lwrist -10.9542
lhand -21.4476 -12.3506
lfingers 7.12502
lthumb 4.94213 17.5718
rfemur -24.207 7.16079 18.8471
rtibia 7.28819
rfoot -19.3835 -8.1012
rtoes -26.1803
lfemur -25.2763 -9.66652 -15.677
ltibia 8.70143
lfoot -8.41397 4.47191
ltoes -40.209
205
root 9.27576 16.3054 20.0036 -151.864 -2.88355 -179.379
lowerback -30.5148 -1.45113 -4.56862
upperback -3.50993 -1.51412 0.217836
thorax 12.1278 -1.36876 2.03056
lowerneck -5.51223 -2.92947 18.3569
upperneck 0.181497 -5.98349 -25.4187
head -0.329471 -3.71869 -11.3054
rclavicle 6.80837e-015 5.56597e-015
rhumerus -32.6667 -16.6754 -82.5242
rradius 27.8623
rwrist 2.41896
rhand -8.2781 -49.9449
rfingers 7.12502
rthumb 17.6412 -79.1646
lclavicle 6.80837e-015 5.56597e-015
lhumerus -28.3279 6.57618 82.4701
lradius 18.4507
lwrist -11.1415
lhand -21.2733 -12.4221
lfingers 7.12502
lthumb 5.11045 17.4963
rfemur -24.9217 6.94024 18.8998
rtibia 7.62966
rfoot -19.316 -7.69671
rtoes -26.9174
lfemur -25.8059 -9.52273 -15.5522
ltibia 8.81061
lfoot -8.37412 4.67428
ltoes -40.645
206
root 9.28116 16.3069 20.0111 -151.884 -2.96469 -179.455
lowerback -30.3696 -1.58593 -4.6945
upperback -3.40114 -1.62983 0.285551
thorax 12.2011 -1.41815 2.13136
lowerneck -5.69414 -2.87826 18.3332
upperneck 0.172862 -5.95889 -25.4926
head -0.293972 -3.72592 -11.336
rclavicle 7.10655e-015 -1.19271e-015
rhumerus -32.4696 -16.4887 -82.557
rradius 27.8941
rwrist 2.32357
rhand -8.22032 -50.1906
rfingers 7.12502
rthumb 17.6968 -79.4053
lclavicle 7.10655e-015 -1.19271e-015
lhumerus -28.1999 6.66772 82.4934
lradius 18.4916
lwrist -11.0901
lhand -21.0642 -12.5667
lfingers 7.12502
lthumb 5.31235 17.3467
rfemur -24.9145 6.95472 18.8346
rtibia 7.61732
rfoot -19.3006 -7.82916
rtoes -26.8411
lfemur -25.8624 -9.5332 -15.5928
ltibia 8.90877
lfoot -8.45515 4.62551
ltoes -40.7553
207
root 9.28385 16.309 20.0186 -151.896 -2.99667 -179.435
lowerback -30.2115 -1.62822 -4.68063
upperback -3.32699 -1.67456 0.304723
thorax 12.2211 -1.42996 2.13232
lowerneck -5.80878 -2.86189 18.3625
upperneck 0.184779 -5.96696 -25.5641
head -0.274615 -3.74296 -11.3727
rclavicle 1.97791e-014 6.36111e-015
rhumerus -32.316 -16.5764 -82.5473
rradius 27.8022
rwrist 2.48318
rhand -8.09033 -49.9946
rfingers 7.12502
rthumb 17.8219 -79.198
lclavicle 1.97791e-014 6.36111e-015
lhumerus -28.215 6.39947 82.5362
lradius 18.6943
lwrist -10.6028
lhand -20.9686 -12.7003
lfingers 7.12502
lthumb 5.4047 17.2108
rfemur -24.9597 6.95484 18.8679
rtibia 7.67582
rfoot -19.3451 -7.82805
rtoes -26.7441
lfemur -25.9153 -9.47606 -15.5542
ltibia 8.9966
lfoot -8.51532 4.59846
ltoes -40.2718
208
root 9.28731 16.3131 20.0336 -151.876 -3.04603 -179.481
lowerback -29.8889 -1.66146 -4.70785
upperback -3.3323 -1.70745 0.280468
thorax 12.0769 -1.43766 2.11854
lowerneck -5.85746 -2.88869 18.3851
upperneck 0.232442 -6.01543 -25.6208
head -0.266609 -3.77483 -11.3992
rclavicle 4.96962e-016 -7.15625e-015
rhumerus -32.2906 -16.8139 -82.4899
rradius 27.7534
rwrist 2.67927
rhand -7.98936 -49.7593
rfingers 7.12502
rthumb 17.9191 -78.9538
lclavicle 4.96962e-016 -7.15625e-015
lhumerus -28.2177 6.11297 82.5281
lradius 18.7843
lwrist -10.2298
lhand -20.9865 -12.8768
lfingers 7.12502
lthumb 5.38734 17.0347
rfemur -25.0538 6.87639 18.831
rtibia 7.71202
rfoot -19.2909 -7.80076
rtoes -26.6405
lfemur -26.069 -9.42848 -15.5834
ltibia 9.08391
lfoot -8.41116 4.5117
ltoes -40.3659
209
root 9.29174 16.3174 20.0484 -151.899 -3.02877 -179.541
lowerback -29.4614 -1.65907 -4.72697
upperback -3.67098 -1.69277 0.168769
thorax 12.2729 -1.43396 2.17904
lowerneck -5.95009 -2.91585 18.3516
upperneck 0.262724 -6.07195 -25.647
head -0.254523 -3.81339 -11.4046
rclavicle 8.44835e-016 1.98785e-015
rhumerus -32.2489 -16.8783 -82.4905
rradius 27.8639
rwrist 2.62304
rhand -8.09067 -50.1726
rfingers 7.12502
rthumb 17.8216 -79.376
lclavicle 8.44835e-016 1.98785e-015
lhumerus -28.1265 6.05489 82.4575
lradius 18.7985
lwrist -10.4772
lhand -20.8717 -13.0986
lfingers 7.12502
lthumb 5.49819 16.8101
rfemur -25.1127 6.85852 18.7694
rtibia 7.75054
rfoot -19.2011 -7.77782
rtoes -26.6079
lfemur -26.1412 -9.42766 -15.6314
ltibia 9.12965
lfoot -8.41302 4.51831
ltoes -40.8275
210
root 9.29706 16.3218 20.0636 -151.871 -3.02434 -179.564
lowerback -29.2241 -1.66466 -4.75478
upperback -3.60578 -1.67873 0.169901
thorax 12.2274 -1.4195 2.20745
lowerneck -6.07937 -2.93495 18.3177
upperneck 0.284785 -6.12503 -25.6735
head -0.237198 -3.85279 -11.4115
rclavicle 7.45443e-016 -7.15625e-015
rhumerus -32.2041 -16.711 -82.5455
rradius 28.035
rwrist 2.40514
rhand -8.35618 -50.8398
rfingers 7.12502
rthumb 17.5661 -80.0662
lclavicle 7.45443e-016 -7.15625e-015
lhumerus -28.0718 6.09301 82.3994
lradius 18.933
lwrist -10.9806
lhand -20.6275 -13.0352
lfingers 7.12502
lthumb 5.73398 16.8672
rfemur -25.255 7.03291 18.7073
rtibia 7.83688
rfoot -19.2113 -7.98998
rtoes -26.6898
lfemur -26.2558 -9.39148 -15.6159
ltibia 9.19274
lfoot -8.56661 4.40869
ltoes -40.5502
211
root 9.30159 16.3238 20.0785 -151.763 -2.97961 -179.559
lowerback -29.0797 -1.67385 -4.80515
upperback -3.596 -1.67812 0.201744
thorax 12.1667 -1.41835 2.27691
lowerneck -6.15792 -2.9376 18.3485
upperneck 0.290026 -6.15528 -25.7459
head -0.231639 -3.87839 -11.4469
rclavicle -1.02871e-014 -1.35174e-014
rhumerus -32.2288 -16.7532 -82.4777
rradius 28.0591
rwrist 2.5617
rhand -8.54062 -51.0383
rfingers 7.12502
rthumb 17.3886 -80.2805
lclavicle -1.02871e-014 -1.35174e-014
lhumerus -28.1127 5.84083 82.452
lradius 19.1327
lwrist -11.0055
lhand -20.5999 -12.9389
lfingers 7.12502
lthumb 5.76069 16.9628
rfemur -25.5029 7.19697 18.6576
rtibia 7.93991
rfoot -19.2079 -8.14468
rtoes -26.5588
lfemur -26.4149 -9.29367 -15.5879
ltibia 9.18057
lfoot -8.51815 4.31588
ltoes -40.7885
